name C:\Users\tom_v\MusculoskeletalSpecialization\ResultsSprinting\Case_7\motion.mot
datacolumns 32
datarows 17
range 0.00000000 0.09094394
endheader 
time	pelvis_tilt	pelvis_list	pelvis_rotation	pelvis_tx	pelvis_ty	pelvis_tz	hip_flexion_r	hip_adduction_r	hip_rotation_r	knee_angle_r	ankle_angle_r	subtalar_angle_r	mtp_angle_r	hip_flexion_l	hip_adduction_l	hip_rotation_l	knee_angle_l	ankle_angle_l	subtalar_angle_l	mtp_angle_l	lumbar_extension	lumbar_bending	lumbar_rotation	arm_flex_r	arm_add_r	arm_rot_r	elbow_flex_r	arm_flex_l	arm_add_l	arm_rot_l	elbow_flex_l	
          0.00000000	        -10.95531821	         -2.76726696	          0.81733528	          0.00000000	          0.88328855	          0.00235112	         44.74412011	          8.08964389	          4.30069016	        -42.60960833	          7.51676898	         -5.71782687	          0.43411025	          1.34579479	         -2.92200616	          2.67869979	        -53.05260545	        -11.05230129	         17.82284866	         18.32680632	         -0.03691600	          4.41369424	         -3.55578226	         -7.68893090	         -7.01441322	          2.78053491	         65.22525228	         13.01988679	         -0.93952614	         15.64518404	          3.70919567	
          0.00568400	        -10.89018644	         -2.66652536	          0.91998994	          0.01988196	          0.88024701	          0.00272794	         43.88457101	          8.41112317	          4.88438023	        -43.98819200	          9.80535990	         -6.07420341	          1.38188683	          2.43255362	         -2.91477256	          2.36872406	        -55.17388109	         -9.80026479	         17.63603616	         16.98517730	          0.09441392	          4.30962602	         -3.40297890	         -7.11964125	         -6.89221933	          3.14306493	         63.14840864	         12.49801342	         -1.20585542	         15.74246298	          5.05897986	
          0.01136799	        -10.83245138	         -2.56748797	          1.01286872	          0.03959453	          0.87729769	          0.00309217	         42.89016894	          8.71296869	          5.42704046	        -45.14027722	         12.15713060	         -6.39105375	          2.50454760	          3.62965723	         -2.89633878	          2.05186889	        -57.33354334	         -8.40722062	         17.34331996	         15.76384094	          0.21113992	          4.20576502	         -3.23338647	         -6.45399163	         -6.75725087	          3.54385949	         60.87950582	         11.90969889	         -1.51464934	         15.71638831	          6.68898311	
          0.01705199	        -10.78368681	         -2.46775059	          1.09168302	          0.05905877	          0.87454907	          0.00345487	         41.83925143	          8.99819214	          5.93088296	        -46.14434275	         14.41352672	         -6.69353556	          3.64238386	          4.93786184	         -2.86120669	          1.73790697	        -59.49981148	         -7.00374111	         16.98048358	         14.63282210	          0.30219053	          4.09780968	         -3.04871562	         -5.66856231	         -6.60415855	          3.99243482	         58.39205769	         11.25868728	         -1.86621657	         15.55518867	          8.60880706	
          0.02273599	        -10.74430239	         -2.36509138	          1.15616565	          0.07824891	          0.87207341	          0.00381365	         40.78029053	          9.26130637	          6.39181946	        -47.06023148	         16.45439327	         -6.96926247	          4.79570918	          6.34745521	         -2.80568452	          1.42917260	        -61.63909307	         -5.60546080	         16.55264158	         13.57830380	          0.36356517	          3.98275409	         -2.85184998	         -4.75544875	         -6.42867467	          4.49170557	         55.67534948	         10.54549724	         -2.25571082	         15.25810478	         10.81608005	
          0.02841998	        -10.71410240	         -2.25404518	          1.20633762	          0.09717764	          0.86991805	          0.00416155	         39.72247201	          9.48757857	          6.80101611	        -47.88896883	         18.17272711	         -7.21368355	          6.03763526	          7.84228089	         -2.72394131	          1.12288189	        -63.71523431	         -4.21038521	         16.06529121	         12.59592177	          0.39631036	          3.85430661	         -2.64438918	         -3.71763868	         -6.22644937	          5.04046445	         52.72940493	          9.76890073	         -2.67546658	         14.83273724	         13.29800443	
          0.03410398	        -10.69285629	         -2.13103701	          1.24176622	          0.11587151	          0.86811316	          0.00449254	         38.65596288	          9.66577688	          7.15837730	        -48.61348043	         19.55260416	         -7.41401048	          7.41377960	          9.40714979	         -2.61326548	          0.81547979	        -65.69872812	         -2.83318520	         15.52393761	         11.68318660	          0.40341009	          3.70875282	         -2.42725612	         -2.56388758	         -5.99358339	          5.63474459	         49.56355985	          8.92881486	         -3.11594401	         14.29297440	         16.03299687	
          0.03978797	        -10.68019073	         -1.99370950	          1.26296356	          0.13436292	          0.86667274	          0.00480221	         37.56408942	          9.78878180	          7.47090286	        -49.21636532	         20.65519444	         -7.55110001	          8.91344215	         11.02814864	         -2.47276705	          0.50650857	        -67.56634038	         -1.48009111	         14.93519153	         10.83359844	          0.38835618	          3.54357858	         -2.20193669	         -1.30770251	         -5.72633595	          6.26748798	         46.19697231	          8.02784170	         -3.56727628	         13.65814781	         18.99155377	
          0.04547197	        -10.67571366	         -1.84023426	          1.27073642	          0.15268416	          0.86559840	          0.00508736	         36.43258622	          9.85087630	          7.74401360	        -49.68248261	         21.53434809	         -7.61314927	         10.52453358	         12.69293667	         -2.30226671	          0.19604284	        -69.30019310	         -0.15133475	         14.30440918	         10.04247057	          0.35445972	          3.35669050	         -1.96957229	          0.03351868	         -5.42171526	          6.92810364	         42.65861775	          7.07219138	         -4.01993060	         12.95098259	         22.13736009	
          0.05115597	        -10.67896761	         -1.66921509	          1.26596444	          0.17086350	          0.86488408	          0.00534481	         35.25430753	          9.84695010	          7.97928581	        -50.00488234	         22.22497151	         -7.59201852	         12.23850245	         14.39107825	         -2.10199084	         -0.11694562	        -70.88820478	          1.15409859	         13.63768475	          9.30585016	          0.30439333	          3.14652064	         -1.73110802	          1.43973585	         -5.07817563	          7.60261754	         38.98639251	          6.07149513	         -4.46518938	         12.19451221	         25.42929831	
          0.05683996	        -10.68950079	         -1.48029731	          1.24938420	          0.18892546	          0.86451844	          0.00557272	         34.02792768	          9.77491145	          8.17774720	        -50.18369219	         22.74647903	         -7.48612351	         14.04892511	         16.11391391	         -1.87298222	         -0.43332420	        -72.32354790	          2.43600027	         12.94133833	          8.62018171	          0.24029772	          2.91261483	         -1.48729714	          2.88866193	         -4.69614925	          8.27365537	         35.22665214	          5.03770593	         -4.89555211	         11.40946398	         28.82398929	
          0.06252396	        -10.70687384	         -1.27404999	          1.22186902	          0.20689252	          0.86448697	          0.00577014	         32.75488803	          9.63539768	          8.34036135	        -50.22230012	         23.10968264	         -7.29978294	         15.94919829	         17.85394351	         -1.61657823	         -0.75252749	        -73.60263886	          3.69243903	         12.22141558	          7.98178037	          0.16403603	          2.65543584	         -1.23878272	          4.35580858	         -4.27855865	          8.92007714	         31.43366653	          3.98396619	         -5.30481879	         10.61310689	         32.27793872	
          0.06820796	        -10.73063348	         -1.05244378	          1.18487277	          0.22478722	          0.86477370	          0.00593708	         31.43687448	          9.43148461	          8.46786104	        -50.12401339	         23.32197544	         -7.04022915	         17.93043783	         19.60432108	         -1.33547199	         -1.07216261	        -74.72368035	          4.92070197	         11.48397202	          7.38683102	          0.07751121	          2.37666682	         -0.98614544	          5.81464861	         -3.83122017	          9.51663593	         27.66847049	          2.92364779	         -5.68810682	          9.81950148	         35.74931539	
          0.07389195	        -10.76019515	         -0.81744006	          1.14018901	          0.24263200	          0.86536353	          0.00607419	         30.07895204	          9.16775769	          8.55972558	        -49.89828681	         23.37988938	         -6.71983691	         19.99244134	         21.35845316	         -1.03137843	         -1.38743457	        -75.68594658	          6.11521401	         10.73480761	          6.83186520	         -0.01737588	          2.07769496	         -0.73017973	          7.23850291	         -3.36276304	         10.03631945	         23.99517529	          1.86942059	         -6.04200909	          9.03930883	         39.19935897	
          0.07957595	        -10.79494945	         -0.57141460	          1.08904539	          0.26044903	          0.86624208	          0.00618227	         28.69099410	          8.85053222	          8.61573262	        -49.56247921	         23.27301614	         -6.34992324	         22.13306745	         23.10984007	         -0.70570098	         -1.69223567	        -76.48961864	          7.26862340	          9.97939457	          6.31316813	         -0.11854159	          1.76056297	         -0.47130643	          8.60222559	         -2.88476134	         10.45352439	         20.47730634	          0.83250472	         -6.36409151	          8.28015710	         42.59337379	
          0.08525994	        -10.83409388	         -0.31644609	          1.03310126	          0.27826563	          0.86739050	          0.00626139	         27.27691590	          8.48517466	          8.63819646	        -49.12650726	         23.00410779	         -5.93518211	         24.33814153	         24.85115191	         -0.36098108	         -1.98233299	        -77.13558839	          8.37292061	          9.22323658	          5.82765254	         -0.22305502	          1.42707715	         -0.21044562	          9.88252676	         -2.41066631	         10.74695902	         17.17429929	         -0.17864524	         -6.65331646	          7.54779210	         45.90228869	
          0.09094394	        -10.87673227	         -0.05387968	          0.97402056	          0.29610814	          0.86878354	          0.00631211	         25.84062602	          8.07621385	          8.62832779	        -48.60150394	         22.57813582	         -5.47860227	         26.59278213	         26.57533964	         -0.00011101	         -2.25523290	        -77.62642738	          9.41863858	          8.47175948	          5.37362086	         -0.32790670	          1.07824090	          0.05137433	         11.06031967	         -1.95431983	         10.90397554	         14.13665439	         -1.15776487	         -6.91015166	          6.84644138	         49.10342276	
